Coordinates
version=1
nRows=6
nColumns=63
inDegrees=yes

Units are S.I. units (second, meters, Newtons, ...)
If the header above contains a line with 'inDegrees', this indicates whether rotational values are in degrees (yes) or radians (no).

endheader
time	pelvis_tilt	pelvis_list	pelvis_rotation	pelvis_tx	pelvis_ty	pelvis_tz	hip_flexion_r	hip_adduction_r	hip_rotation_r	knee_angle_r	knee_angle_r_beta	ankle_angle_r	subtalar_angle_r	mtp_angle_r	hip_flexion_l	hip_adduction_l	hip_rotation_l	knee_angle_l	knee_angle_l_beta	ankle_angle_l	subtalar_angle_l	mtp_angle_l	L5_S1_Flex_Ext	L5_S1_Lat_Bending	L5_S1_axial_rotation	L4_L5_Flex_Ext	L4_L5_Lat_Bending	L4_L5_axial_rotation	L3_L4_Flex_Ext	L3_L4_Lat_Bending	L3_L4_axial_rotation	L2_L3_Flex_Ext	L2_L3_Lat_Bending	L2_L3_axial_rotation	L1_L2_Flex_Ext	L1_L2_Lat_Bending	L1_L2_axial_rotation	L1_T12_Flex_Ext	L1_T12_Lat_Bending	L1_T12_axial_rotation	Abs_r3	Abs_r2	Abs_r1	Abs_t1	Abs_t2	neck_flexion	neck_bending	neck_rotation	arm_flex_r	arm_add_r	arm_rot_r	elbow_flex_r	pro_sup_r	wrist_flex_r	wrist_dev_r	arm_flex_l	arm_add_l	arm_rot_l	elbow_flex_l	pro_sup_l	wrist_flex_l	wrist_dev_l
     11.66700000	    -51.38888581	     -4.84473477	      3.00911101	     -0.37571407	      1.12058296	      0.04485275	     94.03316979	     -8.00578720	    -10.60185640	     56.65942255	      0.98889348	      3.26071163	      6.13876249	      0.00000000	    106.67775186	     -3.58030034	      8.23665362	    108.35189794	      1.89109737	     19.50597643	      7.43682584	      0.00000000	     -0.08820952	      0.38731135	     -0.04460400	     -0.16381390	      0.51512410	     -0.04739175	     -0.14491942	      0.94170882	     -0.04739175	     -0.10081466	      0.94170882	     -0.03902850	     -0.08191136	      0.78980531	     -0.03624075	     -0.05040292	      0.59994529	     -0.03345300	     -0.63007180	      4.38134349	     -0.24807409	      0.00000000	      0.00000000	      0.00000000	      0.00000000	      0.00000000	     73.97014573	    -15.45194643	     17.94994933	     32.65700300	     53.66925086	      0.00000000	      5.00000014	     71.07808819	     -8.30551945	     16.51041771	     36.52309530	     56.06739228	      0.00000000	      5.00000014
     11.67500000	    -51.32715996	     -4.63796010	      3.31633391	     -0.37511297	      1.12046713	      0.04442478	     92.74871153	     -8.10917107	    -10.61193720	     55.23899931	      0.96410241	      2.67120945	      6.27303214	      0.00000000	    107.82977829	     -3.30486800	      7.88912047	    109.59529456	      1.91279873	     19.77524722	      7.31310772	      0.00000000	     -0.08874435	      0.35132342	     -0.10323846	     -0.16480714	      0.46726014	     -0.10969086	     -0.14579810	      0.85420775	     -0.10969086	     -0.10142592	      0.85420775	     -0.09033365	     -0.08240801	      0.71641871	     -0.08388125	     -0.05070852	      0.54419997	     -0.07742884	     -0.63389204	      3.97424075	     -0.57418134	      0.00000000	      0.00000000	      0.00000000	      0.00000000	      0.00000000	     73.79345132	    -15.45538956	     17.93778531	     32.56429606	     53.66141714	      0.00000000	      5.00000014	     71.09882539	     -8.29451221	     16.64073098	     36.44979070	     56.07574858	      0.00000000	      5.00000014
     11.68300000	    -51.26354285	     -4.66199895	      3.17585007	     -0.37450379	      1.12025309	      0.04444484	     91.44367693	     -7.74999496	    -10.78657914	     53.84079290	      0.93969911	      1.76183210	      6.52521701	      0.00000000	    109.09357947	     -3.43364153	      7.84675215	    110.86790872	      1.93501004	     19.85747561	      7.02953296	      0.00000000	     -0.08786286	      0.34753352	     -0.07083727	     -0.16317012	      0.46221958	     -0.07526460	     -0.14434990	      0.84499299	     -0.07526460	     -0.10041847	      0.84499299	     -0.06198261	     -0.08158945	      0.70869035	     -0.05755528	     -0.05020484	      0.53832942	     -0.05312795	     -0.62759565	      3.93136865	     -0.39397565	      0.00000000	      0.00000000	      0.00000000	      0.00000000	      0.00000000	     73.71889785	    -15.50746479	     17.77708430	     32.31936073	     53.64355519	      0.00000000	      5.00000014	     71.15196454	     -8.26008366	     17.19046048	     36.24944562	     56.15720739	      0.00000000	      5.00000014
     11.69200000	    -51.19594070	     -4.44574898	      3.42019203	     -0.37385683	      1.12008785	      0.04407898	     90.23719198	     -7.77877908	    -10.69247866	     52.72217571	      0.92017555	      1.22988271	      6.46866243	      0.00000000	    110.20773275	     -3.23754550	      7.44846398	    111.86068928	      1.95233733	     20.05189884	      6.95289406	      0.00000000	     -0.08895769	      0.31102985	     -0.11350043	     -0.16520332	      0.41366971	     -0.12059421	     -0.14614858	      0.75623799	     -0.12059421	     -0.10166974	      0.75623799	     -0.09931288	     -0.08260611	      0.63425208	     -0.09221910	     -0.05083042	      0.48178524	     -0.08512533	     -0.63541586	      3.51843191	     -0.63125536	      0.00000000	      0.00000000	      0.00000000	      0.00000000	      0.00000000	     73.53194664	    -15.54110013	     17.73547891	     32.22684691	     53.62588416	      0.00000000	      5.00000014	     71.14855987	     -8.25249862	     17.37874473	     36.20951853	     56.16645268	      0.00000000	      5.00000014
     11.70000000	    -51.12379212	     -4.23943730	      3.57455368	     -0.37317199	      1.11987424	      0.04370060	     89.08386966	     -7.73333858	    -10.56403670	     51.77899719	      0.90371398	      0.73942132	      6.35281481	      0.00000000	    111.29669738	     -3.09814512	      7.08964148	    112.74460672	      1.96776460	     20.21605559	      6.91457907	      0.00000000	     -0.08904440	      0.27853094	     -0.13613797	     -0.16536436	      0.37044614	     -0.14464659	     -0.14629105	      0.67722012	     -0.14464659	     -0.10176885	      0.67722012	     -0.11912072	     -0.08268663	      0.56798028	     -0.11061210	     -0.05087997	      0.43144442	     -0.10210348	     -0.63603525	      3.15079764	     -0.75715853	      0.00000000	      0.00000000	      0.00000000	      0.00000000	      0.00000000	     73.34245257	    -15.57509006	     17.68068245	     32.10555079	     53.60768196	      0.00000000	      5.00000014	     71.10964315	     -8.23796588	     17.56699732	     36.17781737	     56.17819208	      0.00000000	      5.00000014
     11.70800000	    -51.09067355	     -4.05706313	      3.38425746	     -0.37267718	      1.11974020	      0.04391892	     88.05371660	     -7.26275735	    -10.36271206	     50.91558941	      0.88864468	     -0.33260410	      5.16407038	      0.00000000	    112.41951573	     -3.31769543	      6.88115782	    113.49220552	      1.98081266	     20.33134526	      6.99995453	      0.00000000	     -0.08931759	      0.24847027	     -0.09440419	     -0.16587170	      0.33046546	     -0.10030445	     -0.14673987	      0.60413061	     -0.10030445	     -0.10208108	      0.60413061	     -0.08260367	     -0.08294032	      0.50668057	     -0.07670341	     -0.05103607	      0.38488045	     -0.07080314	     -0.63798663	      2.81074539	     -0.52504780	      0.00000000	      0.00000000	      0.00000000	      0.00000000	      0.00000000	     73.17905553	    -15.54133101	     17.13045027	     31.96919068	     53.56499744	      0.00000000	      5.00000014	     71.26518638	     -8.42442528	     18.78391351	     36.06122951	     56.40363368	      0.00000000	      5.00000014
